<svg viewBox="0 0 28 28" fill="currentColor" xmlns="http://www.w3.org/2000/svg">
<path d="M14.105 26.21C20.7369 26.21 26.2121 20.7273 26.2121 14.105C26.2121 7.47312 20.7273 2 14.0954 2C7.47523 2 2 7.47312 2 14.105C2 20.7273 7.48484 26.21 14.105 26.21ZM14.105 23.8255C8.71085 23.8255 4.39412 19.4991 4.39412 14.105C4.39412 8.71085 8.70124 4.38452 14.0954 4.38452C19.4895 4.38452 23.8276 8.71085 23.8276 14.105C23.8276 19.4991 19.4991 23.8255 14.105 23.8255Z" fill="currentColor"/>
<path d="M8.68359 14.1029C8.68359 14.7383 9.13265 15.1819 9.78304 15.1819H12.9963V18.4048C12.9963 19.0456 13.4496 19.5043 14.085 19.5043C14.7321 19.5043 15.1929 19.0552 15.1929 18.4048V15.1819H18.4179C19.0586 15.1819 19.5152 14.7383 19.5152 14.1029C19.5152 13.4558 19.0586 12.995 18.4179 12.995H15.1929V9.78167C15.1929 9.12917 14.7321 8.67261 14.085 8.67261C13.4496 8.67261 12.9963 9.12917 12.9963 9.78167V12.995H9.78304C9.13265 12.995 8.68359 13.4558 8.68359 14.1029Z" fill="currentColor"/>
</svg>
