<svg viewBox="0 0 28 28" fill="none" xmlns="http://www.w3.org/2000/svg">
<path d="M7.50374 26.7058C8.13702 26.7058 8.53803 26.3755 9.5421 25.3961L14.0693 20.9202C14.1258 20.8637 14.2249 20.8637 14.2718 20.9202L18.8011 25.3982C19.8073 26.3776 20.2019 26.7058 20.8373 26.7058C21.768 26.7058 22.3411 26.0783 22.3411 25.0272V4.58848C22.3411 2.26489 21.1308 1.03748 18.8285 1.03748H9.51257C7.2082 1.03748 6 2.26489 6 4.58848V25.0272C6 26.0783 6.57304 26.7058 7.50374 26.7058ZM8.61444 22.9047C8.45459 23.0645 8.27131 23.0134 8.27131 22.7875V4.71317C8.27131 3.77707 8.7417 3.30879 9.69491 3.30879H18.6558C19.5994 3.30879 20.0698 3.77707 20.0698 4.71317V22.7875C20.0698 23.0134 19.894 23.0645 19.7266 22.9047L14.9351 18.2591C14.4483 17.7904 13.8928 17.7904 13.406 18.2591L8.61444 22.9047Z" fill="currentColor"/>
</svg>
