<svg viewBox="0 0 28 28" fill="none" xmlns="http://www.w3.org/2000/svg">
<path d="M5.84421 24.8972H21.968C24.4974 24.8972 25.8026 23.5919 25.8026 21.0914V6.82921C25.8026 4.32656 24.4974 3.02344 21.968 3.02344H5.84421C3.31484 3.02344 2 4.31695 2 6.82921V21.0914C2 23.6016 3.31484 24.8972 5.84421 24.8972ZM5.81186 22.6013C4.82795 22.6013 4.29592 22.0969 4.29592 21.0661V10.2389C4.29592 9.21772 4.82795 8.70585 5.81186 8.70585H21.9812C22.9651 8.70585 23.5067 9.21772 23.5067 10.2389V21.0661C23.5067 22.0969 22.9651 22.6013 21.9812 22.6013H5.81186ZM11.6516 12.7673H12.343C12.7594 12.7673 12.8947 12.6438 12.8947 12.2273V11.5359C12.8947 11.1194 12.7594 10.9863 12.343 10.9863H11.6516C11.2351 10.9863 11.0902 11.1194 11.0902 11.5359V12.2273C11.0902 12.6438 11.2351 12.7673 11.6516 12.7673ZM15.481 12.7673H16.1724C16.5889 12.7673 16.7359 12.6438 16.7359 12.2273V11.5359C16.7359 11.1194 16.5889 10.9863 16.1724 10.9863H15.481C15.0645 10.9863 14.9197 11.1194 14.9197 11.5359V12.2273C14.9197 12.6438 15.0645 12.7673 15.481 12.7673ZM19.3126 12.7673H20.004C20.4205 12.7673 20.5653 12.6438 20.5653 12.2273V11.5359C20.5653 11.1194 20.4205 10.9863 20.004 10.9863H19.3126C18.8961 10.9863 18.7609 11.1194 18.7609 11.5359V12.2273C18.7609 12.6438 18.8961 12.7673 19.3126 12.7673ZM7.8221 16.5382H8.50178C8.92999 16.5382 9.06522 16.4147 9.06522 15.9982V15.3068C9.06522 14.8903 8.92999 14.7668 8.50178 14.7668H7.8221C7.39389 14.7668 7.25866 14.8903 7.25866 15.3068V15.9982C7.25866 16.4147 7.39389 16.5382 7.8221 16.5382ZM11.6516 16.5382H12.343C12.7594 16.5382 12.8947 16.4147 12.8947 15.9982V15.3068C12.8947 14.8903 12.7594 14.7668 12.343 14.7668H11.6516C11.2351 14.7668 11.0902 14.8903 11.0902 15.3068V15.9982C11.0902 16.4147 11.2351 16.5382 11.6516 16.5382ZM15.481 16.5382H16.1724C16.5889 16.5382 16.7359 16.4147 16.7359 15.9982V15.3068C16.7359 14.8903 16.5889 14.7668 16.1724 14.7668H15.481C15.0645 14.7668 14.9197 14.8903 14.9197 15.3068V15.9982C14.9197 16.4147 15.0645 16.5382 15.481 16.5382ZM19.3126 16.5382H20.004C20.4205 16.5382 20.5653 16.4147 20.5653 15.9982V15.3068C20.5653 14.8903 20.4205 14.7668 20.004 14.7668H19.3126C18.8961 14.7668 18.7609 14.8903 18.7609 15.3068V15.9982C18.7609 16.4147 18.8961 16.5382 19.3126 16.5382ZM7.8221 20.3187H8.50178C8.92999 20.3187 9.06522 20.1877 9.06522 19.7691V19.0798C9.06522 18.6612 8.92999 18.5398 8.50178 18.5398H7.8221C7.39389 18.5398 7.25866 18.6612 7.25866 19.0798V19.7691C7.25866 20.1877 7.39389 20.3187 7.8221 20.3187ZM11.6516 20.3187H12.343C12.7594 20.3187 12.8947 20.1877 12.8947 19.7691V19.0798C12.8947 18.6612 12.7594 18.5398 12.343 18.5398H11.6516C11.2351 18.5398 11.0902 18.6612 11.0902 19.0798V19.7691C11.0902 20.1877 11.2351 20.3187 11.6516 20.3187ZM15.481 20.3187H16.1724C16.5889 20.3187 16.7359 20.1877 16.7359 19.7691V19.0798C16.7359 18.6612 16.5889 18.5398 16.1724 18.5398H15.481C15.0645 18.5398 14.9197 18.6612 14.9197 19.0798V19.7691C14.9197 20.1877 15.0645 20.3187 15.481 20.3187Z" fill="currentColor"/>
</svg>
