<svg  viewBox="0 0 28 28" fill="none" xmlns="http://www.w3.org/2000/svg">
<path d="M3.10561 6.47363L1.47132 8.0962L6.75179 13.4597C7.3246 14.0367 7.84843 14.2774 8.43296 14.2774C9.0196 14.2774 9.57108 14.025 10.1162 13.4597L14.3022 9.13026C14.4034 9.0269 14.5206 8.97041 14.6101 8.97041C14.7093 8.97041 14.8265 9.0269 14.9277 9.12815L19.4795 13.766L17.6535 15.5962C17.1494 16.0983 17.4515 16.7766 18.1588 16.9605L25.0438 18.7181C25.6787 18.8883 26.2551 18.3354 26.0849 17.6887L24.321 10.792C24.1391 10.0868 23.447 9.78675 22.945 10.2888L21.1096 12.1359L16.2988 7.29745C15.7398 6.73636 15.2022 6.47972 14.608 6.47972C14.0214 6.47972 13.4603 6.73425 12.9248 7.29956L8.73882 11.6247C8.63757 11.7302 8.52999 11.7867 8.43085 11.7867C8.3296 11.7867 8.22413 11.7281 8.12288 11.6247L3.10561 6.47363Z" fill="currentColor"/>
<path d="M1 24.2688C1 24.8714 1.40242 25.2642 2.00711 25.2642H25.476C26.1182 25.2642 26.6383 24.7781 26.6383 24.1221C26.6383 23.4757 26.1182 22.9779 25.476 22.9779H3.61983C3.38428 22.9779 3.29592 22.8895 3.29592 22.654V4.21946C3.29592 3.58688 2.80022 3.0647 2.15382 3.0647C1.49781 3.0647 1 3.58688 1 4.21946V24.2688Z" fill="currentColor"/>
</svg>
