<svg viewBox="0 0 28 28" fill="none" xmlns="http://www.w3.org/2000/svg">
<path d="M7.31151 24.6497H9.81534C10.0467 24.6497 10.2077 24.7116 10.3729 24.8789L12.1565 26.6508C13.6774 28.1813 15.1096 28.1717 16.6305 26.6508L18.4141 24.8789C18.5793 24.7116 18.7403 24.6497 18.9717 24.6497H21.4755C23.6343 24.6497 24.6492 23.6402 24.6492 21.4739V18.9701C24.6492 18.7409 24.7153 18.5852 24.8805 18.4125L26.6428 16.631C28.1732 15.1102 28.1636 13.6854 26.6428 12.1549L24.8805 10.3735C24.7132 10.2061 24.6492 10.0451 24.6492 9.82549V7.31205C24.6492 5.16283 23.6397 4.13627 21.4755 4.13627H18.9717C18.7403 4.13627 18.5772 4.07979 18.4141 3.91666L16.6305 2.14478C15.1075 0.610099 13.6816 0.626037 12.1565 2.14689L10.3729 3.91666C10.2098 4.07979 10.0467 4.13627 9.81534 4.13627H7.31151C5.15269 4.13627 4.13784 5.13939 4.13784 7.31205V9.82549C4.13784 10.0451 4.08136 10.2082 3.91613 10.3735L2.14425 12.1549C0.613783 13.6854 0.623392 15.1102 2.14425 16.631L3.91613 18.4125C4.08136 18.5852 4.13784 18.7409 4.13784 18.9701V21.4739C4.13784 23.6327 5.1548 24.6497 7.31151 24.6497ZM7.4676 22.5206C6.43518 22.5206 6.26901 22.3545 6.26479 21.3199V18.2583C6.26479 17.911 6.16565 17.6499 5.91205 17.3963L3.75416 15.2501C3.02221 14.5064 3.02221 14.2934 3.75416 13.5497L5.91205 11.4035C6.16565 11.1499 6.26479 10.8888 6.26901 10.5319V7.46813C6.26901 6.42399 6.42135 6.26954 7.4676 6.26954L10.5314 6.26743C10.8862 6.26743 11.1515 6.17368 11.4009 5.9147L13.5492 3.7568C14.2907 3.02485 14.5038 3.02274 15.2378 3.7568L17.3957 5.9147C17.6355 6.17368 17.9104 6.26743 18.2557 6.26743L21.3194 6.26954C22.3518 6.26954 22.518 6.43571 22.518 7.46813V10.5319C22.5201 10.8888 22.631 11.1499 22.8846 11.4035L25.0404 13.5497C25.7744 14.2934 25.7744 14.5064 25.0404 15.2501L22.8846 17.3963C22.631 17.6499 22.5201 17.911 22.5201 18.2583L22.518 21.3199C22.518 22.3545 22.3518 22.5206 21.3194 22.5206L18.2557 22.5228C17.9104 22.5228 17.6397 22.6198 17.3957 22.8851L15.2378 25.043C14.5059 25.7749 14.2907 25.7749 13.5492 25.043L11.4009 22.8851C11.1473 22.6198 10.8862 22.5228 10.5314 22.5228L7.4676 22.5206Z" fill="currentColor"/>
<path d="M13.14 19.962C13.5605 19.962 13.9266 19.7513 14.1757 19.3765L19.4173 11.1795C19.5652 10.9357 19.707 10.6631 19.707 10.3873C19.707 9.81259 19.1876 9.42212 18.6439 9.42212C18.2928 9.42212 17.9745 9.61478 17.7265 10.0106L13.0995 17.4441L10.9196 14.6667C10.632 14.296 10.3573 14.1736 10.0135 14.1736C9.43879 14.1736 8.9834 14.6302 8.9834 15.2145C8.9834 15.488 9.09098 15.7542 9.28668 16.0064L12.0575 19.3828C12.3694 19.7843 12.7133 19.962 13.14 19.962Z" fill="currentColor"/>
</svg>
