<svg width="28" height="28" viewBox="0 0 28 28" fill="currentColor" xmlns="http://www.w3.org/2000/svg">
<path d="M6.84421 24.8972H21.0295C23.5685 24.8972 24.8737 23.5919 24.8737 21.0914V6.82921C24.8737 4.32656 23.5685 3.02344 21.0295 3.02344H6.84421C4.31484 3.02344 3 4.31695 3 6.82921V21.0914C3 23.6016 4.31484 24.8972 6.84421 24.8972Z" fill="white"/>
<path d="M12.6617 19.7301C12.219 19.7301 11.8571 19.5387 11.5314 19.1137L8.65744 15.6204C8.45002 15.3523 8.34033 15.0818 8.34033 14.7848C8.34033 14.1879 8.81588 13.7037 9.42033 13.7037C9.7822 13.7037 10.0611 13.8281 10.3646 14.2148L12.6212 17.0827L17.4669 9.32416C17.7233 8.92409 18.0554 8.71338 18.4225 8.71338C18.9981 8.71338 19.5376 9.12401 19.5376 9.73807C19.5376 10.0085 19.4033 10.2949 19.232 10.5642L13.7474 19.1053C13.4802 19.5152 13.0982 19.7301 12.6617 19.7301Z" fill="blue"/>
</svg>
