<svg viewBox="0 0 31 28" fill="none" xmlns="http://www.w3.org/2000/svg">
  <defs>
    <linearGradient id="crown-gold" x1="0%" y1="0%" x2="100%" y2="100%">
      <stop offset="0%" stop-color="#ffd700" />
      <stop offset="50%" stop-color="#daa520" />
      <stop offset="100%" stop-color="#b8860b" />
    </linearGradient>
  </defs>
  <path d="M3.21656 12.3512C4.97975 12.3512 6.41928 10.9117 6.41928 9.12507C6.41928 7.37148 4.97975 5.92234 3.21656 5.92234C1.43953 5.92234 0 7.36187 0 9.12507C0 10.9117 1.44914 12.3512 3.21656 12.3512ZM3.21656 10.308C2.57507 10.308 2.04327 9.77616 2.04327 9.12507C2.04327 8.47819 2.57507 7.96561 3.21656 7.96561C3.84421 7.96561 4.37601 8.49741 4.37601 9.12507C4.37601 9.77616 3.86343 10.308 3.21656 10.308ZM15.3558 7.41928C17.1211 7.41928 18.5606 5.97975 18.5606 4.20273C18.5606 2.44914 17.1211 1 15.3558 1C13.5712 1 12.1413 2.43953 12.1413 4.20273C12.1413 5.97975 13.5809 7.41928 15.3558 7.41928ZM15.3558 5.37601C14.7164 5.37601 14.1825 4.84421 14.1825 4.20273C14.1825 3.55585 14.7164 3.04327 15.3558 3.04327C15.9855 3.04327 16.5173 3.57507 16.5173 4.20273C16.5173 4.84421 16.0048 5.37601 15.3558 5.37601ZM27.4875 12.3512C29.2507 12.3512 30.7019 10.9117 30.7019 9.12507C30.7019 7.36187 29.2624 5.92234 27.4875 5.92234C25.7222 5.92234 24.2826 7.37148 24.2826 9.12507C24.2826 10.9117 25.7222 12.3512 27.4875 12.3512ZM27.4875 10.308C26.8385 10.308 26.3238 9.77616 26.3238 9.12507C26.3238 8.49741 26.8577 7.96561 27.4875 7.96561C28.1269 7.96561 28.6587 8.47819 28.6587 9.12507C28.6587 9.77616 28.1269 10.308 27.4875 10.308ZM4.52671 11.5504L8.33226 13.8587C9.24467 14.4022 10.5628 14.3645 11.3763 13.2625L15.9051 7.17554L13.8982 6.31515L9.84257 11.7705C9.65272 12.0435 9.44905 12.0937 9.09491 11.875L5.65405 9.74875L4.52671 11.5504ZM26.1921 11.5661L25.0669 9.76445L21.6452 11.8694C21.2719 12.1094 21.0586 12.0379 20.8495 11.7552L16.8227 6.32125L14.8254 7.19124L19.3638 13.2953C20.1581 14.3685 21.4666 14.4276 22.3214 13.9129L26.1921 11.5661ZM6.04335 20.2204H24.6703V18.0965H6.04335V20.2204ZM3.05882 11.844L5.47687 21.6941C5.94539 23.6268 6.99609 24.5947 9.00139 24.5947H21.7026C23.7155 24.5947 24.7587 23.6268 25.2368 21.6941L27.6548 11.844L25.6755 10.9443L23.1351 21.3892C22.9591 22.1221 22.5016 22.4708 21.724 22.4708H8.98757C8.20991 22.4708 7.75451 22.1221 7.5785 21.3892L5.0285 10.9443L3.05882 11.844Z" fill="url(#crown-gold)"/>
</svg>
