<svg viewBox="0 0 22 22" fill="none" xmlns="http://www.w3.org/2000/svg">
<path d="M3.84421 21.8972H18.0295C20.5685 21.8972 21.8737 20.5919 21.8737 18.0914V3.82921C21.8737 1.32656 20.5685 0.0234375 18.0295 0.0234375H3.84421C1.31484 0.0234375 0 1.31695 0 3.82921V18.0914C0 20.6016 1.31484 21.8972 3.84421 21.8972Z" fill="#aeaeaf"/>
<path d="M8.24921 16.3608C7.44976 16.3608 7.04688 15.8618 7.04688 15.0368V6.67026C7.04688 5.84948 7.45187 5.34839 8.24921 5.34839H13.795C14.3777 5.34839 14.7607 5.68026 14.7607 6.26643C14.7607 6.8376 14.3777 7.19619 13.795 7.19619H9.33695V9.92808H13.5377C14.0824 9.92808 14.4464 10.2356 14.4464 10.7923C14.4464 11.3222 14.0824 11.6255 13.5377 11.6255H9.33695V14.513H13.795C14.3777 14.513 14.7607 14.8545 14.7607 15.4406C14.7607 16.0118 14.3777 16.3608 13.795 16.3608H8.24921Z" fill="#111111"/>
</svg>
