<svg viewBox="0 0 33 28" fill="none" xmlns="http://www.w3.org/2000/svg">
<path d="M16.1039 24.2276C18.2667 24.2276 20.2462 23.8513 22.0458 23.2428L20.1795 21.3723C18.9009 21.7511 17.5488 21.9793 16.1039 21.9793C8.60694 21.9793 2.65404 15.7188 2.65404 14.0854C2.65404 13.2989 4.65326 10.7519 7.8614 8.78101L6.10032 7.02204C2.26547 9.45297 0 12.6801 0 14.0854C0 16.4824 6.62578 24.2276 16.1039 24.2276ZM16.1039 3.94751C14.0627 3.94751 12.2027 4.29696 10.4822 4.86696L12.3581 6.73539C13.5459 6.39296 14.771 6.19562 16.1039 6.19562C23.5913 6.19562 29.5463 12.7162 29.5463 14.0854C29.5463 15.0029 27.6516 17.3973 24.6312 19.2925L26.37 21.0376C30.0415 18.6163 32.2003 15.4619 32.2003 14.0854C32.2003 11.6831 25.7119 3.94751 16.1039 3.94751ZM16.1039 20.4032C17.0128 20.4032 17.8695 20.1833 18.6375 19.8247L10.3399 11.5272C9.9696 12.2931 9.76147 13.1593 9.76147 14.0875C9.77108 17.5246 12.5794 20.4032 16.1039 20.4032ZM21.9532 16.3501C22.2638 15.6536 22.4313 14.8801 22.4313 14.0833C22.4313 10.5609 19.6134 7.77179 16.106 7.77179C15.292 7.77179 14.5282 7.93937 13.8316 8.22859L21.9532 16.3501Z" fill="currentColor"/>
<path d="M25.3391 24.4257C25.7033 24.7996 26.2869 24.8188 26.6586 24.4257C27.0496 24.0327 27.0207 23.48 26.6586 23.1062L6.81388 3.27316C6.44967 2.90895 5.85435 2.90895 5.48264 3.27316C5.13014 3.62566 5.13014 4.2423 5.48264 4.59269L25.3391 24.4257Z" fill="currentColor"/>
</svg>
