<svg viewBox="0 0 33 28" fill="none" xmlns="http://www.w3.org/2000/svg">
<path d="M16.1039 24.3001C25.7119 24.3001 32.2003 16.555 32.2003 14.158C32.2003 11.7557 25.7023 4.02014 16.1039 4.02014C6.63539 4.02014 0 11.7557 0 14.158C0 16.555 6.62578 24.3001 16.1039 24.3001ZM16.1039 22.052C8.60694 22.052 2.65404 15.7914 2.65404 14.158C2.65404 12.7888 8.60694 6.26825 16.1039 6.26825C23.572 6.26825 29.5463 12.7888 29.5463 14.158C29.5463 15.7914 23.572 22.052 16.1039 22.052ZM16.106 20.4759C19.6177 20.4759 22.4313 17.5973 22.4313 14.158C22.4313 10.6335 19.6177 7.84654 16.106 7.84654C12.5794 7.84654 9.75186 10.6314 9.76147 14.158C9.78069 17.5973 12.5794 20.4759 16.106 20.4759ZM16.1018 16.2048C14.9632 16.2048 14.0442 15.2774 14.0442 14.158C14.0442 13.029 14.9632 12.1154 16.1018 12.1154C17.2371 12.1154 18.1582 13.029 18.1582 14.158C18.1582 15.2774 17.2371 16.2048 16.1018 16.2048Z" fill="currentColor"/>
</svg>
