<svg viewBox="0 0 27 23" fill="none" xmlns="http://www.w3.org/2000/svg">
<path d="M3.84421 21.825H23.3062C25.541 21.825 26.8558 20.5198 26.8558 18.0192V5.96718C26.8558 3.46664 25.5314 2.16141 23.0116 2.16141H12.1076C11.2706 2.16141 10.7627 1.96758 10.1219 1.43625L9.44928 0.892499C8.62944 0.217265 8.02335 0 6.79569 0H3.47905C1.29539 0 0 1.27523 0 3.73405V18.0192C0 20.5294 1.31484 21.825 3.84421 21.825ZM3.97733 19.5291C2.88772 19.5291 2.29592 18.967 2.29592 17.8263V3.93233C2.29592 2.85655 2.88209 2.28631 3.93538 2.28631H6.195C7.01273 2.28631 7.50468 2.48764 8.15929 3.02108L8.82984 3.57444C9.64429 4.23256 10.2696 4.45944 11.4973 4.45944H22.8689C23.9489 4.45944 24.5599 5.03108 24.5599 6.16968V17.8359C24.5599 18.967 23.9489 19.5291 22.8689 19.5291H3.97733ZM1.43319 8.87716H25.432V6.85241H1.43319V8.87716Z" fill="currentColor"/>
</svg>
