<svg viewBox="0 0 28 28" fill="none" xmlns="http://www.w3.org/2000/svg">
<path d="M2 14.0029C2 17.5576 3.03008 21.4841 4.76539 24.5308C5.10476 25.1148 5.7589 25.285 6.36851 24.9477C6.94717 24.6318 7.11311 23.9755 6.76413 23.3425C5.20647 20.5042 4.336 17.132 4.336 14.0029C4.336 7.60233 8.2496 3.336 14.1259 3.336C19.9946 3.336 23.9157 7.60233 23.9157 14.0029C23.9157 17.132 23.0356 20.5042 21.478 23.3425C21.129 23.9755 21.2949 24.6318 21.8736 24.9477C22.4832 25.285 23.1469 25.1148 23.4767 24.5308C25.212 21.4841 26.2517 17.5576 26.2517 14.0029C26.2517 6.1907 21.4137 1 14.1259 1C6.82836 1 2 6.1907 2 14.0029ZM5.9485 24.2188C6.36686 25.6108 7.57225 26.2424 8.97803 25.8262C10.3721 25.4036 11.0155 24.1811 10.5854 22.787L8.90115 17.2223C8.4828 15.8399 7.27952 15.1966 5.87374 15.6128C4.47968 16.0429 3.83632 17.2579 4.2664 18.6637L5.9485 24.2188ZM22.2936 24.2188L23.9757 18.6637C24.4058 17.2483 23.772 16.0429 22.3684 15.6128C20.9626 15.1966 19.7689 15.8399 19.3409 17.2223L17.6567 22.787C17.2266 24.1907 17.87 25.4036 19.2641 25.8262C20.6795 26.2424 21.8752 25.6108 22.2936 24.2188Z" fill="currentColor"/>
</svg>
