<svg viewBox="0 0 28 28" fill="none" xmlns="http://www.w3.org/2000/svg">
<path d="M5 5.55171V23.1659C5 25.501 6.20703 26.7176 8.52288 26.7176H20.078C22.3939 26.7176 23.5892 25.501 23.5892 23.1659V5.55171C23.5892 3.21664 22.3939 2 20.078 2H8.52288C6.20703 2 5 3.21664 5 5.55171ZM7.29592 5.68483C7.29592 4.7703 7.75975 4.29592 8.69444 4.29592H19.9044C20.8391 4.29592 21.2933 4.7703 21.2933 5.68483V23.0328C21.2933 23.9377 20.8294 24.4217 19.9044 24.4217H8.69444C7.75975 24.4217 7.29592 23.9377 7.29592 23.0328V5.68483ZM14.3005 22.6447C16.9215 22.6447 19.0332 20.5447 19.0332 17.9141C19.0332 15.2771 16.9215 13.1909 14.3005 13.1813C11.6794 13.1675 9.56772 15.2771 9.56772 17.9141C9.56772 20.5447 11.6794 22.6447 14.3005 22.6447ZM14.3005 19.8043C13.261 19.8043 12.406 18.961 12.406 17.9141C12.406 16.8277 13.2301 16.0079 14.3005 16.0079C15.3591 16.0079 16.1928 16.8277 16.1928 17.9141C16.1928 18.961 15.3591 19.8043 14.3005 19.8043ZM14.2984 11.4596C15.7927 11.4596 17.0283 10.257 17.0049 8.75303C16.9932 7.24905 15.7927 6.0678 14.2984 6.05397C12.7944 6.04436 11.5939 7.23944 11.5939 8.75303C11.5939 10.257 12.7944 11.4596 14.2984 11.4596ZM14.3005 10.0069C13.5978 10.0069 13.0465 9.43436 13.0465 8.75303C13.0465 8.02694 13.5978 7.49701 14.3005 7.49701C14.9797 7.49701 15.5544 8.05787 15.5544 8.75303C15.5544 9.43436 14.9914 10.0069 14.3005 10.0069Z" fill="currentColor"/>
</svg>
