<svg viewBox="0 0 28 28" fill="currentColor" xmlns="http://www.w3.org/2000/svg">
<path d="M26.5355 20.4111L19.5935 13.8974C19.0683 13.4286 18.4589 13.1771 17.8324 13.1771C17.19 13.1771 16.6137 13.3977 16.0788 13.876L10.7862 18.6062L8.62453 16.6555C8.13234 16.2123 7.59117 15.9896 7.04249 15.9896C6.50039 15.9896 6.02507 16.2006 5.53288 16.6438L1.11023 20.6075C1.16788 22.7666 2.17217 23.8932 4.11232 23.8932H23.1117C25.4627 23.8932 26.6346 22.6801 26.5355 20.4111ZM9.0785 14.1538C10.6134 14.1538 11.8788 12.8883 11.8788 11.3396C11.8788 9.80465 10.6134 8.52754 9.0785 8.52754C7.52975 8.52754 6.26436 9.80465 6.26436 11.3396C6.26436 12.8883 7.52975 14.1538 9.0785 14.1538ZM3.84421 24.8781H23.9109C26.4499 24.8781 27.7552 23.5824 27.7552 21.0819V6.81004C27.7552 4.30739 26.4499 3.00427 23.9109 3.00427H3.84421C1.31484 3.00427 0 4.30739 0 6.81004V21.0819C0 23.5824 1.31484 24.8781 3.84421 24.8781ZM3.97733 22.5821C2.88772 22.5821 2.29592 22.018 2.29592 20.8794V7.01043C2.29592 5.87183 2.88772 5.30019 3.97733 5.30019H23.7778C24.8578 5.30019 25.4592 5.87183 25.4592 7.01043V20.8794C25.4592 22.018 24.8578 22.5821 23.7778 22.5821H3.97733Z" fill="currentColor"/>
</svg>
