<svg viewBox="0 0 25 25" fill="none" xmlns="http://www.w3.org/2000/svg">
<path d="M12.105 24.21C18.7369 24.21 24.2121 18.7273 24.2121 12.105C24.2121 5.47312 18.7273 0 12.0954 0C5.47523 0 0 5.47312 0 12.105C0 18.7273 5.48484 24.21 12.105 24.21ZM12.105 21.8255C6.71085 21.8255 2.39412 17.4991 2.39412 12.105C2.39412 6.71085 6.70124 2.38452 12.0954 2.38452C17.4895 2.38452 21.8276 6.71085 21.8276 12.105C21.8276 17.4991 17.4991 21.8255 12.105 21.8255Z" fill="currentColor"/>
<path d="M12.7392 17.4328C13.4478 17.4328 13.872 16.9985 13.872 16.2073V7.98889C13.872 7.21851 13.4032 6.76124 12.646 6.76124C12.1428 6.76124 11.7727 6.89741 11.2172 7.27312L9.18593 8.64163C8.87328 8.86077 8.73828 9.07663 8.73828 9.42444C8.73828 9.85733 9.06172 10.2373 9.5021 10.2373C9.71281 10.2373 9.84476 10.2117 10.1417 10.0073L11.5416 9.08295H11.6396V16.2073C11.6396 16.9985 12.0596 17.4328 12.7392 17.4328Z" fill="currentColor"/>
</svg>
