<svg viewBox="0 0 28 30" fill="none" xmlns="http://www.w3.org/2000/svg">
<path d="M13.0554 29.0691C13.5982 29.5235 14.3316 29.5821 14.8446 29.0808L18.4636 25.4597C18.967 24.9487 18.9436 24.1739 18.4519 23.6705L16.7198 21.9459L19.286 19.3894C19.7831 18.8977 19.7681 18.1111 19.2764 17.6002L16.9348 15.2489C20.1131 13.6746 21.8979 11.0391 21.8979 7.93031C21.8979 3.54281 18.3455 0 13.9538 0C9.52898 0 6 3.52148 6 7.93031C6 11.0878 7.80047 13.9001 10.6523 15.1877V26.1891C10.6523 26.6032 10.7822 27.0844 11.1431 27.4038L13.0554 29.0691ZM13.9538 27.0002L12.6762 25.7344V13.6596C10.0003 13.0744 8.08593 10.725 8.08593 7.93031C8.08593 4.7039 10.7039 2.09765 13.9538 2.09765C17.194 2.09765 19.7981 4.7039 19.7981 7.93031C19.7981 10.7037 17.8741 13.0765 14.9496 13.7311V16.2544L17.1916 18.5123L14.7916 20.8772V22.9912L16.3734 24.5475L13.9538 27.0002ZM13.9538 7.99992C15.1024 7.99992 16.0348 7.06757 16.0348 5.9114C16.0348 4.76062 15.1024 3.83038 13.9538 3.83038C12.7859 3.83038 11.8631 4.7489 11.8631 5.9114C11.8631 7.06757 12.7955 7.99992 13.9538 7.99992Z" fill="currentColor"/>
</svg>
