<svg viewBox="0 0 35 28" fill="none" xmlns="http://www.w3.org/2000/svg">
<path d="M6.26245 20.6226V7.40427C6.26245 6.66693 6.6269 6.31091 7.35581 6.31091H27.1455C27.8723 6.31091 28.2368 6.66693 28.2368 7.40427V20.6226H6.26245Z" fill="transparent"/>
<path d="M0 22.1146C0 22.9372 0.673591 23.6087 1.48452 23.6087H33.0147C33.8278 23.6087 34.5014 22.9372 34.5014 22.1146C34.5014 21.2919 33.8278 20.6226 33.0147 20.6226H30.5327V6.80312C30.5327 4.98321 29.5357 4.01501 27.7254 4.01501H6.776C5.03296 4.01501 3.96656 4.98321 3.96656 6.80312V20.6226H1.48452C0.673591 20.6226 0 21.2919 0 22.1146ZM6.26248 20.6226V7.40429C6.26248 6.66695 6.62693 6.31093 7.35584 6.31093H27.1455C27.8723 6.31093 28.2368 6.66695 28.2368 7.40429V20.6226H6.26248Z" fill="currentColor"/>
</svg>
