<svg viewBox="0 0 28 28" fill="none" xmlns="http://www.w3.org/2000/svg">
<path d="M3.80577 26.3655H16.2891C18.8013 26.3655 20.0948 25.0602 20.0948 22.5287V17.2516H17.7989V22.386C17.7989 23.4777 17.2369 24.0695 16.0983 24.0695H3.99866C2.85795 24.0695 2.29592 23.4777 2.29592 22.386V4.98905C2.29592 3.89733 2.85795 3.29592 3.99866 3.29592H16.0983C17.2369 3.29592 17.7989 3.89733 17.7989 4.98905V10.1287H20.0948V4.84632C20.0948 2.32445 18.8013 1 16.2891 1H3.80577C1.29562 1 0 2.32445 0 4.84632V22.5287C0 25.0602 1.29562 26.3655 3.80577 26.3655Z" fill="currentColor"/>
<path d="M11.3524 14.7604H23.1619L24.907 14.6732L24.0476 15.4047L22.3001 17.0455C22.0894 17.2328 21.9787 17.5042 21.9787 17.7669C21.9787 18.3055 22.3629 18.7384 22.9108 18.7384C23.1907 18.7384 23.4014 18.632 23.6058 18.4351L27.3965 14.5016C27.671 14.223 27.7603 13.9614 27.7603 13.6806C27.7603 13.3902 27.671 13.1362 27.3965 12.8596L23.6058 8.92399C23.4014 8.72712 23.1907 8.6132 22.9108 8.6132C22.3629 8.6132 21.9787 9.03438 21.9787 9.57298C21.9787 9.84532 22.0894 10.1188 22.3001 10.3061L24.0476 11.9566L24.907 12.688L23.1619 12.5913H11.3524C10.7801 12.5913 10.2961 13.086 10.2961 13.6806C10.2961 14.2752 10.7801 14.7604 11.3524 14.7604Z" fill="currentColor"/>
</svg>
