<svg width="28" height="28" viewBox="0 0 28 28" fill="none" xmlns="http://www.w3.org/2000/svg">
<path d="M5.31163 26.1329C6.93585 26.1329 10.223 24.5561 12.6947 22.7872C20.9639 22.9403 27.1329 18.1705 27.1329 11.9139C27.1329 5.87171 21.1022 1 13.5675 1C6.0307 1 0 5.87171 0 11.9139C0 15.7576 2.39977 19.1973 6.07125 20.98C5.56711 21.9299 4.66711 23.2473 4.15453 23.9219C3.41532 24.9025 3.92742 26.1329 5.31163 26.1329ZM6.71084 23.7616C6.56858 23.8157 6.51444 23.7348 6.60889 23.6085C7.20819 22.8674 8.10772 21.6993 8.53569 20.9008C8.88702 20.2492 8.76491 19.6848 8.01069 19.3269C4.42803 17.6498 2.35451 14.9699 2.35451 11.9139C2.35451 7.19147 7.32913 3.34491 13.5675 3.34491C19.8134 3.34491 24.788 7.19147 24.788 11.9139C24.788 16.6267 19.8134 20.4733 13.5675 20.4733C13.35 20.4733 13.0247 20.4637 12.6108 20.4541C12.1101 20.4541 11.733 20.6001 11.2666 20.9706C9.85475 22.0136 7.75616 23.3385 6.71084 23.7616Z" fill="currentColor"/>
<path d="M8.12343 13.7725C9.09256 13.7725 9.8817 12.9737 9.8817 12.0025C9.8817 11.0312 9.08296 10.2421 8.12343 10.2421C7.13835 10.2421 6.35132 11.0312 6.35132 12.0025C6.35132 12.9737 7.13835 13.7725 8.12343 13.7725Z" fill="currentColor"/>
<path d="M13.5612 13.7725C14.5324 13.7725 15.3333 12.9737 15.3333 12.0025C15.3333 11.0312 14.5324 10.2421 13.5612 10.2421C12.5899 10.2421 11.7912 11.0312 11.7912 12.0025C11.7912 12.9737 12.5899 13.7725 13.5612 13.7725Z" fill="currentColor"/>
<path d="M19.0106 13.7725C19.984 13.7725 20.771 12.9737 20.771 12.0025C20.771 11.0312 19.984 10.2421 19.0106 10.2421C18.0298 10.2421 17.2427 11.0312 17.2427 12.0025C17.2427 12.9737 18.0298 13.7725 19.0106 13.7725Z" fill="currentColor"/>
</svg>
