<svg viewBox="0 0 28 28" fill="none" xmlns="http://www.w3.org/2000/svg">
<path d="M5 12.6082C5 17.4276 8.21234 20.7368 12.8291 21.1729V23.5828H8.52569C7.9196 23.5828 7.41359 24.074 7.41359 24.6822C7.41359 25.2841 7.9196 25.77 8.52569 25.77H19.2732C19.8814 25.77 20.3874 25.2841 20.3874 24.6822C20.3874 24.074 19.8814 23.5828 19.2732 23.5828H14.9719V21.1729C19.5982 20.7368 22.801 17.4276 22.801 12.6082V10.2862C22.801 9.68015 22.313 9.20906 21.7027 9.20906C21.0945 9.20906 20.5927 9.68015 20.5927 10.2862V12.5294C20.5927 16.5234 17.8983 19.1487 13.9053 19.1487C9.90263 19.1487 7.20826 16.5234 7.20826 12.5294V10.2862C7.20826 9.68015 6.71608 9.20906 6.09616 9.20906C5.48586 9.20906 5 9.68015 5 10.2862V12.6082ZM9.42241 12.0935C9.42241 14.9091 11.2665 16.8855 13.9053 16.8855C16.5324 16.8855 18.3786 14.9091 18.3786 12.0935V4.78991C18.3786 1.97109 16.5324 0 13.9053 0C11.2665 0 9.42241 1.97109 9.42241 4.78991V12.0935ZM11.6391 12.1315V4.75406C11.6391 3.19053 12.5234 2.12788 13.9053 2.12788C15.2872 2.12788 16.1598 3.18631 16.1598 4.75406V12.1315C16.1598 13.6971 15.2872 14.7555 13.9053 14.7555C12.5234 14.7555 11.6391 13.6971 11.6391 12.1315Z" fill="currentColor"/>
</svg>
