<svg viewBox="0 0 28 29" fill="none" xmlns="http://www.w3.org/2000/svg">
<path d="M2.53691 26.8314C4.56988 28.8665 6.94784 28.8899 8.94987 26.8921C10.3446 25.4974 11.8097 22.2588 12.8986 20.9125L15.3357 23.3613C16.3151 24.3524 17.5158 24.3567 18.4697 23.3985L20.0067 21.8498C20.9649 20.8799 20.9585 19.7165 19.9695 18.7275L10.6526 9.39675C9.66143 8.40348 8.48628 8.39387 7.51644 9.36371L5.98152 10.9082C5.02129 11.8685 5.01379 13.049 6.00918 14.0423L8.45371 16.4793C7.11918 17.5682 3.88058 19.0258 2.48793 20.4185C0.490115 22.4205 0.501833 24.8081 2.53691 26.8314ZM7.86565 12.179L8.7769 11.2849C9.04151 11.0224 9.32956 11.0106 9.59417 11.2753L18.0985 19.7699C18.3535 20.0346 18.3535 20.3247 18.0792 20.5989L17.1968 21.491C16.9301 21.7769 16.6249 21.7865 16.3561 21.5006L13.5427 18.6775C13.0648 18.1975 12.4306 18.2444 11.8878 18.7734C10.9737 19.6736 9.383 23.5038 7.51339 25.3596C6.44112 26.4414 5.14714 26.4393 4.03221 25.3361C2.93862 24.2308 2.92479 22.923 4.00666 21.8507C5.87627 19.9971 9.70432 18.4042 10.6067 17.4881C11.1239 16.9378 11.1804 16.3035 10.7004 15.8332L7.86565 13.0059C7.59893 12.7413 7.59893 12.4457 7.86565 12.179ZM5.74503 25.0429C6.51448 25.0429 7.13581 24.412 7.13581 23.6446C7.13581 22.8773 6.51448 22.256 5.74503 22.256C4.97768 22.256 4.34674 22.8773 4.34674 23.6446C4.34674 24.412 4.97768 25.0429 5.74503 25.0429ZM19.6507 20.1238L25.3142 14.4625C26.6719 13.1027 26.6442 11.466 25.2514 10.071L16.0395 0.845349C14.7078 -0.486366 12.4632 0.0552723 12.0043 2.07511C10.8722 6.96979 10.8612 7.36987 9.02605 9.93464L10.5741 11.4785C12.7514 8.67885 12.8764 7.35159 13.9971 3.22283C14.1305 2.70111 14.5594 2.56564 14.9114 2.90807L23.6128 11.5999C24.0992 12.0862 24.0971 12.6433 23.6501 13.0924L18.1357 18.6089L19.6507 20.1238ZM17.7654 13.2839C18.3844 13.9049 21.8084 12.0065 22.9899 10.5182L20.4139 7.95182C20.1912 10.026 19.1131 11.526 17.8006 12.8385C17.6482 12.9909 17.6599 13.1805 17.7654 13.2839Z" fill="currentColor"/>
</svg>
