<svg viewBox="0 0 28 28" fill="none" xmlns="http://www.w3.org/2000/svg">
<path d="M8.2959 22.2337V5.40713H19.6043V22.2337H8.2959ZM13.9666 25.3457C13.364 25.3457 12.8754 24.857 12.8754 24.2523C12.8754 23.6615 13.364 23.1749 13.9666 23.1749C14.5575 23.1749 15.0461 23.6615 15.0461 24.2523C15.0461 24.857 14.5575 25.3457 13.9666 25.3457ZM11.5743 3.27433C11.5743 2.97316 11.785 2.77417 12.0745 2.77417H15.8332C16.1247 2.77417 16.3354 2.97316 16.3354 3.27433C16.3354 3.57761 16.1247 3.76276 15.8332 3.76276H12.0745C11.785 3.76276 11.5743 3.57761 11.5743 3.27433Z" fill="transparent"/>
<path d="M6 23.4104C6 25.3483 7.35117 26.6408 9.37101 26.6408H18.5798C20.5701 26.6408 21.9002 25.3483 21.9002 23.4083V4.23249C21.9002 2.29258 20.5701 1 18.5798 1H9.37101C7.35117 1 6 2.29258 6 4.23038V23.4104ZM8.29592 22.2337V5.40717H19.6043V22.2337H8.29592ZM13.9666 25.3457C13.364 25.3457 12.8754 24.857 12.8754 24.2523C12.8754 23.6615 13.364 23.1749 13.9666 23.1749C14.5575 23.1749 15.0462 23.6615 15.0462 24.2523C15.0462 24.857 14.5575 25.3457 13.9666 25.3457ZM11.5744 3.27437C11.5744 2.9732 11.7851 2.77421 12.0745 2.77421H15.8332C16.1247 2.77421 16.3354 2.9732 16.3354 3.27437C16.3354 3.57765 16.1247 3.7628 15.8332 3.7628H12.0745C11.7851 3.7628 11.5744 3.57765 11.5744 3.27437Z" fill="currentColor"/>
</svg>
