<svg width="28" height="29" viewBox="0 0 28 29" fill="none" xmlns="http://www.w3.org/2000/svg">
<path d="M5 17.816C5 18.8775 5.71648 19.5801 6.82812 19.5801H13.0962V25.1161C13.0962 26.7698 13.9348 28.4269 14.2573 28.4269C14.5723 28.4269 15.4109 26.7698 15.4109 25.1161V19.5801H21.6791C22.7907 19.5801 23.5072 18.8775 23.5072 17.816C23.5072 15.2991 21.5035 12.7005 18.1937 11.482L17.8091 6.03984C19.5601 5.04609 20.9431 3.95086 21.5483 3.17625C21.8677 2.76515 22.0285 2.3393 22.0285 1.96242C22.0285 1.18852 21.4334 0.621094 20.5583 0.621094H7.95851C7.07375 0.621094 6.48828 1.18852 6.48828 1.96242C6.48828 2.3393 6.63945 2.76515 6.95891 3.17625C7.56406 3.95086 8.94711 5.04609 10.6981 6.03984L10.3135 11.482C7.00367 12.7005 5 15.2991 5 17.816Z" fill="currentColor"/>
</svg>
