<svg width="28" height="29" viewBox="0 0 28 29" fill="currentColor" xmlns="http://www.w3.org/2000/svg">
<path d="M14.2573 28.4269C14.5723 28.4269 15.4109 26.7698 15.4109 25.1161V18.5306H13.0962V25.1161C13.0962 26.7698 13.9348 28.4269 14.2573 28.4269ZM6.82812 19.5801H21.6791C22.7907 19.5801 23.5072 18.8775 23.5072 17.816C23.5072 14.2737 19.5411 10.7869 14.2573 10.7869C8.96609 10.7869 5 14.2737 5 17.816C5 18.8775 5.71648 19.5801 6.82812 19.5801ZM7.36437 17.5997C7.12648 17.5997 7.02405 17.4621 7.06671 17.1858C7.34983 15.0869 10.1063 12.7066 14.2573 12.7066C18.4009 12.7066 21.1573 15.0869 21.4405 17.1858C21.4831 17.4621 21.3807 17.5997 21.1428 17.5997H7.36437ZM6.48828 1.96242C6.48828 2.32969 6.63945 2.75554 6.95891 3.16664C7.55445 3.95086 8.94711 5.04609 10.4511 6.03984L10.0133 12.4003H12.1034L12.5434 5.10305C12.5551 4.90735 12.519 4.81922 12.3702 4.74375C10.779 3.92156 9.54404 2.97328 9.3617 2.71781C9.26584 2.58023 9.34694 2.48015 9.47163 2.48015H19.0355C19.1602 2.48015 19.2413 2.58023 19.1455 2.71781C18.9631 2.97328 17.7282 3.92156 16.137 4.74375C15.9978 4.81922 15.9521 4.90735 15.9734 5.10305L16.4037 12.4003H18.4939L18.0561 6.03984C19.5697 5.04609 20.9527 3.95086 21.5483 3.16664C21.8773 2.75554 22.0285 2.32969 22.0285 1.96242C22.0285 1.18852 21.4334 0.621094 20.5583 0.621094H7.95851C7.07375 0.621094 6.48828 1.18852 6.48828 1.96242Z" fill="currentColor"/>
</svg>
