<svg width="28" height="30" viewBox="0 0 28 30" fill="currentColor" xmlns="http://www.w3.org/2000/svg">
    <path
        d="M21.367 13.6066C22.377 13.5853 23.1931 12.7884 23.1931 11.7944C23.1931 10.7887 22.3749 9.97054 21.367 9.95671C20.3613 9.945 19.5314 10.7866 19.5314 11.7944C19.5314 12.7905 20.3613 13.6205 21.367 13.6066ZM21.367 18.829C22.3727 18.829 23.1931 17.997 23.1931 16.9891C23.1931 15.9813 22.3749 15.1631 21.367 15.1631C20.3613 15.1631 19.5314 15.9855 19.5314 16.9891C19.5314 17.9948 20.3613 18.829 21.367 18.829ZM11.1511 11.3658C11.6283 11.3658 12.0117 10.9631 12.0117 10.4625C12.0117 9.98742 11.6262 9.59226 11.1511 9.59226C10.6739 9.59226 10.2787 9.98742 10.2787 10.4625C10.2787 10.9631 10.6739 11.3658 11.1511 11.3658ZM13.9634 12.1671C14.4598 12.1671 14.8357 11.7644 14.8357 11.2852C14.8357 10.7866 14.4619 10.4032 13.9634 10.4032C13.4841 10.4032 13.1145 10.7866 13.1145 11.2852C13.1145 11.7644 13.4862 12.1671 13.9634 12.1671ZM16.0873 14.2024C16.5687 14.2024 16.9734 13.819 16.9734 13.3418C16.9734 12.8412 16.5687 12.4364 16.0873 12.4364C15.6122 12.4364 15.2309 12.8412 15.2309 13.3418C15.2309 13.819 15.6122 14.2024 16.0873 14.2024ZM16.8087 16.9327C17.2859 16.9327 17.6693 16.5396 17.6693 16.0624C17.6693 15.5756 17.2859 15.1922 16.8087 15.1922C16.3219 15.1922 15.9384 15.5756 15.9384 16.0624C15.9384 16.5396 16.3219 16.9327 16.8087 16.9327ZM16.0873 19.6767C16.5666 19.6767 16.9734 19.272 16.9734 18.7831C16.9734 18.2963 16.5687 17.9128 16.0873 17.9128C15.6122 17.9128 15.2309 18.2963 15.2309 18.7831C15.2309 19.2741 15.6122 19.6767 16.0873 19.6767ZM13.9634 21.7697C14.4619 21.7697 14.8357 21.3766 14.8357 20.8877C14.8357 20.4084 14.4598 20.0037 13.9634 20.0037C13.4862 20.0037 13.1145 20.4084 13.1145 20.8877C13.1145 21.3766 13.4841 21.7697 13.9634 21.7697ZM11.1511 22.6287C11.6262 22.6287 12.0117 22.2335 12.0117 21.7584C12.0117 21.2578 11.6283 20.8531 11.1511 20.8531C10.6739 20.8531 10.2787 21.2578 10.2787 21.7584C10.2787 22.2335 10.6739 22.6287 11.1511 22.6287ZM8.3271 21.7697C8.80429 21.7697 9.17601 21.3766 9.17601 20.8877C9.17601 20.4084 8.80218 20.0037 8.3271 20.0037C7.82859 20.0037 7.45476 20.4084 7.45476 20.8877C7.45476 21.3766 7.82648 21.7697 8.3271 21.7697ZM6.21069 19.6767C6.68577 19.6767 7.0596 19.2741 7.0596 18.7831C7.0596 18.2963 6.68577 17.9128 6.21069 17.9128C5.7239 17.9128 5.31913 18.2963 5.31913 18.7831C5.31913 19.272 5.7239 19.6767 6.21069 19.6767ZM5.4914 16.9327C5.96858 16.9327 6.35202 16.5396 6.35202 16.0624C6.35202 15.5756 5.96858 15.1922 5.4914 15.1922C5.0121 15.1922 4.62116 15.5756 4.62116 16.0624C4.62116 16.5396 5.0121 16.9327 5.4914 16.9327ZM6.21069 14.2024C6.68577 14.2024 7.0596 13.819 7.0596 13.3418C7.0596 12.8412 6.68577 12.4364 6.21069 12.4364C5.7239 12.4364 5.31913 12.8412 5.31913 13.3418C5.31913 13.819 5.7239 14.2024 6.21069 14.2024ZM8.3271 12.1671C8.80218 12.1671 9.17601 11.7644 9.17601 11.2852C9.17601 10.7866 8.80429 10.4032 8.3271 10.4032C7.82648 10.4032 7.45476 10.7866 7.45476 11.2852C7.45476 11.7644 7.82859 12.1671 8.3271 12.1671ZM11.1511 14.2601C11.6283 14.2601 12.0117 13.867 12.0117 13.3898C12.0117 12.8988 11.6283 12.4941 11.1511 12.4941C10.6739 12.4941 10.2787 12.8988 10.2787 13.3898C10.2787 13.867 10.6739 14.2601 11.1511 14.2601ZM13.7728 15.4003C14.2596 15.4003 14.6334 14.9955 14.6334 14.528C14.6334 14.0508 14.2596 13.6556 13.7728 13.6556C13.2977 13.6556 12.8909 14.0529 12.8909 14.528C12.8909 14.9934 13.2977 15.4003 13.7728 15.4003ZM13.7728 18.5674C14.2617 18.5674 14.6334 18.1819 14.6334 17.7047C14.6334 17.2062 14.2617 16.8131 13.7728 16.8131C13.2956 16.8131 12.8909 17.2062 12.8909 17.7047C12.8909 18.1819 13.2956 18.5674 13.7728 18.5674ZM11.1511 19.7248C11.6262 19.7248 12.0117 19.3179 12.0117 18.8311C12.0117 18.3539 11.6283 17.9609 11.1511 17.9609C10.6739 17.9609 10.2787 18.3539 10.2787 18.8311C10.2787 19.3179 10.6739 19.7248 11.1511 19.7248ZM8.51554 18.5674C8.99273 18.5674 9.39749 18.1819 9.39749 17.7047C9.39749 17.2062 8.99273 16.8131 8.51554 16.8131C8.03835 16.8131 7.65492 17.2062 7.65492 17.7047C7.65492 18.1819 8.03835 18.5674 8.51554 18.5674ZM8.51554 15.4003C8.99062 15.4003 9.39749 14.9934 9.39749 14.528C9.39749 14.0529 8.99062 13.6556 8.51554 13.6556C8.04046 13.6556 7.65492 14.0508 7.65492 14.528C7.65492 14.9955 8.04046 15.4003 8.51554 15.4003ZM11.1511 16.9807C11.6283 16.9807 12.0117 16.5877 12.0117 16.1105C12.0117 15.6333 11.6283 15.2402 11.1511 15.2402C10.6739 15.2402 10.2787 15.6333 10.2787 16.1105C10.2787 16.5877 10.6739 16.9807 11.1511 16.9807ZM22.444 7.38796L23.0962 5.33649L6.82734 0.0527401C6.26344 -0.132415 5.64844 0.186802 5.47711 0.746487C5.28985 1.30406 5.60696 1.91906 6.16664 2.10632L22.444 7.38796ZM3.84421 27.0553H23.9109C26.4499 27.0553 27.7552 25.7597 27.7552 23.2591V8.98734C27.7552 6.48469 26.4499 5.18157 23.9109 5.18157H3.84421C1.31484 5.18157 0 6.48469 0 8.98734V23.2591C0 25.7597 1.31484 27.0553 3.84421 27.0553ZM3.97733 24.7594C2.88772 24.7594 2.29592 24.1952 2.29592 23.0566V9.18773C2.29592 8.04913 2.88772 7.47749 3.97733 7.47749H23.7778C24.8578 7.47749 25.4592 8.04913 25.4592 9.18773V23.0566C25.4592 24.1952 24.8578 24.7594 23.7778 24.7594H3.97733Z"
        fill="currentColor" />
</svg>