<svg viewBox="0 0 28 28" fill="currentColor" xmlns="http://www.w3.org/2000/svg">
<path d="M4 15.007C4 20.8158 8.66992 25.4899 14.4712 25.4899C20.2703 25.4899 24.9306 20.8158 24.9306 15.007C24.9306 14.318 24.4478 13.8277 23.7597 13.8277C23.0929 13.8277 22.641 14.318 22.641 15.007C22.641 19.5471 19.0038 23.194 14.4712 23.194C9.93647 23.194 6.29592 19.5471 6.29592 15.007C6.29592 10.4428 9.90694 6.81608 14.4353 6.81608C15.2015 6.81608 15.9196 6.87584 16.5203 7.01038L13.3265 10.1691C13.1233 10.384 13.0042 10.6437 13.0042 10.9488C13.0042 11.5912 13.4913 12.0762 14.1241 12.0762C14.4592 12.0762 14.7262 11.9676 14.924 11.7581L19.7373 6.90866C19.9862 6.66936 20.0915 6.38858 20.0915 6.06421C20.0915 5.75578 19.967 5.44945 19.7373 5.22187L14.924 0.333982C14.7241 0.110624 14.4496 0 14.1241 0C13.4913 0 13.0042 0.508356 13.0042 1.15288C13.0042 1.45804 13.1233 1.71772 13.3169 1.93264L16.1514 4.72992C15.6327 4.63172 15.0426 4.56445 14.4353 4.56445C8.64039 4.56445 4 9.20367 4 15.007Z" fill="currentColor"/>
</svg>
