<svg viewBox="0 0 28 28" fill="none" xmlns="http://www.w3.org/2000/svg">
<path d="M5.05944 21.1612C5.43842 21.1612 5.7717 20.8663 5.7717 20.4756V15.8378C5.7717 15.4609 5.43842 15.1469 5.05944 15.1469C4.66874 15.1469 4.36429 15.4609 4.36429 15.8378V20.4756C4.36429 20.8663 4.66874 21.1612 5.05944 21.1612ZM7.77749 21.1612C8.16608 21.1612 8.48975 20.8663 8.48975 20.4756V15.8378C8.48975 15.4609 8.16608 15.1469 7.77749 15.1469C7.38679 15.1469 7.09405 15.4609 7.09405 15.8378V20.4756C7.09405 20.8663 7.38679 21.1612 7.77749 21.1612ZM10.4955 21.1612C10.8841 21.1612 11.2078 20.8663 11.2078 20.4756V15.8378C11.2078 15.4609 10.8841 15.1469 10.4955 15.1469C10.1048 15.1469 9.8121 15.4609 9.8121 15.8378V20.4756C9.8121 20.8663 10.1048 21.1612 10.4955 21.1612ZM14.0107 21.2631C14.4752 21.2514 14.8769 20.8806 14.8769 20.3851C14.8769 19.9131 14.4731 19.5189 14.0107 19.5189C13.5152 19.5189 13.121 19.9131 13.121 20.3851C13.121 20.8806 13.5152 21.2535 14.0107 21.2631ZM14.0107 19.0272C14.4752 19.0155 14.8769 18.6426 14.8769 18.1471C14.8769 17.6751 14.4731 17.2712 14.0107 17.2712C13.5152 17.2712 13.121 17.6751 13.121 18.1471C13.121 18.6426 13.5152 19.0176 14.0107 19.0272ZM14.0107 16.7774C14.4752 16.7657 14.8769 16.3832 14.8769 15.8877C14.8769 15.4253 14.4731 15.0215 14.0107 15.0215C13.5152 15.0215 13.121 15.4253 13.121 15.8877C13.121 16.3928 13.5152 16.7678 14.0107 16.7774ZM17.3597 21.1612C17.7483 21.1612 18.0719 20.8663 18.0719 20.4756V15.8378C18.0719 15.4609 17.7483 15.1469 17.3597 15.1469C16.9711 15.1469 16.6762 15.4609 16.6762 15.8378V20.4756C16.6762 20.8663 16.9711 21.1612 17.3597 21.1612ZM20.0777 21.1612C20.4663 21.1612 20.7996 20.8663 20.7996 20.4756V15.8378C20.7996 15.4609 20.4663 15.1469 20.0777 15.1469C19.6987 15.1469 19.3943 15.4609 19.3943 15.8378V20.4756C19.3943 20.8663 19.6987 21.1612 20.0777 21.1612ZM22.8075 21.1612C23.1844 21.1612 23.5177 20.8663 23.5177 20.4756V15.8378C23.5177 15.4609 23.1844 15.1469 22.8075 15.1469C22.4168 15.1469 22.1123 15.4609 22.1123 15.8378V20.4756C22.1123 20.8663 22.4168 21.1612 22.8075 21.1612ZM3.84421 24.4661H24.1071C26.6386 24.4661 27.9513 23.1726 27.9513 20.6603V13.6087C27.9513 11.9421 27.5257 10.7484 26.5425 9.76518L22.7763 5.89119C21.5046 4.58855 20.6048 4.02136 18.9218 4.02136H9.03164C7.3582 4.02136 6.44883 4.58855 5.18461 5.89119L1.40883 9.76518C0.420467 10.7674 0 11.9125 0 13.6087V20.6603C0 23.1726 1.31484 24.4661 3.84421 24.4661ZM3.9478 22.2208C2.86663 22.2208 2.26639 21.6398 2.26639 20.518V15.1316C2.26639 14.406 2.60295 14.0598 3.30725 14.0598H24.6441C25.3484 14.0598 25.6849 14.406 25.6849 15.1316V20.518C25.6849 21.6398 25.0868 22.2208 24.0035 22.2208H3.9478ZM3.10944 12.0949C2.70772 12.0949 2.59475 11.7262 2.83452 11.4747L7.1353 6.93838C7.79225 6.23877 8.26991 5.98846 9.15702 5.98846H18.7964C19.6814 5.98846 20.1687 6.23877 20.8181 6.93838L25.1264 11.4747C25.3566 11.7262 25.2532 12.0949 24.8419 12.0949H3.10944Z" fill="currentColor"/>
</svg>
