<svg viewBox="0 0 28 22" fill="none" xmlns="http://www.w3.org/2000/svg">
<path d="M21.5367 5.98621C22.3158 5.96278 22.9702 5.32223 22.9702 4.54105C22.9702 3.75027 22.3158 3.08629 21.5367 3.08629C20.7673 3.08629 20.1012 3.75449 20.1012 4.54105C20.1012 5.32223 20.7673 5.99793 21.5367 5.98621ZM21.5367 12.3709C22.3158 12.3495 22.9702 11.7069 22.9702 10.9278C22.9702 10.137 22.3158 9.47301 21.5367 9.47301C20.7673 9.47301 20.1012 10.1413 20.1012 10.9278C20.1012 11.7069 20.7673 12.3847 21.5367 12.3709ZM21.5367 18.7555C22.3158 18.7342 22.9702 18.0915 22.9702 17.3124C22.9702 16.5195 22.3158 15.8556 21.5367 15.8556C20.7673 15.8556 20.1012 16.5259 20.1012 17.3124C20.1012 18.0915 20.7673 18.7672 21.5367 18.7555ZM26.6512 8.72324V6.77231H1.13273V8.72324H26.6512ZM26.6512 15.1292V13.1783H1.13273V15.1292H26.6512ZM3.84421 21.8781H23.9109C26.4499 21.8781 27.7552 20.5824 27.7552 18.0819V3.81004C27.7552 1.30739 26.4499 0.00427246 23.9109 0.00427246H3.84421C1.31484 0.00427246 0 1.30739 0 3.81004V18.0819C0 20.5824 1.31484 21.8781 3.84421 21.8781ZM3.97733 19.5821C2.88772 19.5821 2.29592 19.018 2.29592 17.8794V4.01043C2.29592 2.87183 2.88772 2.30019 3.97733 2.30019H23.7778C24.8578 2.30019 25.4592 2.87183 25.4592 4.01043V17.8794C25.4592 19.018 24.8578 19.5821 23.7778 19.5821H3.97733Z" fill="currentColor"/>
</svg>
