<svg width="28" height="28" viewBox="0 0 28 28" fill="none" xmlns="http://www.w3.org/2000/svg">
<path d="M15.6785 26.9414C16.0401 26.9414 16.3113 26.6787 16.3762 26.3053C17.2167 19.9648 18.1085 19.0015 24.3609 18.3047C24.746 18.2632 25.0151 17.9782 25.0151 17.6048C25.0151 17.2453 24.7502 16.9624 24.363 16.9146C18.1127 16.1925 17.2462 15.2566 16.3762 8.90648C16.3071 8.53312 16.038 8.28 15.6785 8.28C15.319 8.28 15.0478 8.53312 14.9925 8.90648C14.1499 15.2566 13.2506 16.2199 7.00569 16.9146C6.61101 16.9561 6.34406 17.2411 6.34406 17.6048C6.34406 17.9761 6.6089 18.259 7.00359 18.3047C13.2368 19.1367 14.0819 19.9648 14.9925 26.3053C15.0499 26.6787 15.3211 26.9414 15.6785 26.9414ZM7.575 13.9509C7.81664 13.9509 7.99218 13.7817 8.01984 13.5476C8.43539 10.444 8.52609 10.4334 11.7584 9.82499C11.9808 9.78562 12.1479 9.62179 12.1479 9.38015C12.1479 9.14601 11.9787 8.97047 11.7541 8.94492C8.53242 8.49422 8.42578 8.39507 8.01984 5.23195C7.99218 4.98609 7.81875 4.81687 7.575 4.81687C7.33875 4.81687 7.16531 4.98609 7.13016 5.24578C6.75726 8.34515 6.60258 8.34398 3.39164 8.94492C3.16711 8.98429 3 9.14601 3 9.38015C3 9.63562 3.16711 9.78562 3.44273 9.82499C6.61758 10.328 6.75726 10.4163 7.13016 13.5241C7.16531 13.7817 7.33875 13.9509 7.575 13.9509ZM13.2574 5.76398C13.4203 5.76398 13.5171 5.65758 13.5427 5.5064C13.8794 3.6164 13.8485 3.54164 15.8791 3.17203C16.0324 3.13476 16.1367 3.04219 16.1367 2.87719C16.1367 2.7218 16.0303 2.6175 15.877 2.59195C13.8485 2.24344 13.8773 2.16445 13.5427 0.259686C13.5171 0.106406 13.4203 0 13.2574 0C13.0924 0 12.9977 0.106406 12.9722 0.263905C12.6417 2.14758 12.6684 2.22234 10.6357 2.59195C10.4707 2.61961 10.3781 2.7218 10.3781 2.87719C10.3781 3.04219 10.4707 3.13476 10.642 3.17203C12.6621 3.52898 12.6354 3.60797 12.9722 5.5043C12.9977 5.65758 13.0924 5.76398 13.2574 5.76398Z" fill="currentColor"/>
</svg>
