<svg width="28" height="28" viewBox="0 0 28 28" fill="currentColor" xmlns="http://www.w3.org/2000/svg">
<path d="M12.8205 24.9747C13.6952 24.9747 14.3304 24.3395 14.3304 23.4744V5.57171C14.3304 4.70664 13.6952 4.01172 12.8013 4.01172C12.2041 4.01172 11.7881 4.26625 11.1462 4.86883L6.23296 9.4593C6.16476 9.52539 6.06984 9.56055 5.9632 9.56055H2.64538C0.927185 9.56055 0 10.5175 0 12.3273V16.6783C0 18.4977 0.927185 19.4472 2.64538 19.4472H5.96109C6.06773 19.4472 6.16265 19.476 6.23085 19.5421L11.1462 24.1773C11.7241 24.7351 12.2149 24.9747 12.8205 24.9747Z" fill="currentColor"/>
<path d="M18.5131 19.6804C18.9969 20.0005 19.6489 19.8932 20.0075 19.3792C20.952 18.1218 21.5122 16.3335 21.5122 14.4815C21.5122 12.6295 20.952 10.8508 20.0075 9.57953C19.6489 9.06977 18.9969 8.95071 18.5131 9.28258C17.942 9.65711 17.84 10.3464 18.2877 11.0019C18.9357 11.9226 19.3013 13.1748 19.3013 14.4815C19.3013 15.7881 18.924 17.0287 18.2877 17.961C17.8496 18.6241 17.942 19.2962 18.5131 19.6804Z" fill="currentColor"/>
<path d="M23.1864 22.8128C23.7128 23.1479 24.3615 23.0193 24.7264 22.4875C26.2517 20.3322 27.137 17.4477 27.137 14.4815C27.137 11.5152 26.2613 8.61156 24.7264 6.47336C24.3615 5.94368 23.7128 5.81501 23.1864 6.15016C22.6346 6.49797 22.5559 7.18375 22.9611 7.79077C24.2089 9.61023 24.9282 12.0065 24.9282 14.4815C24.9282 16.9565 24.1897 19.3314 22.9611 21.1701C22.5655 21.7771 22.6346 22.465 23.1864 22.8128Z" fill="currentColor"/>
</svg>
