<svg viewBox="0 0 28 28" fill="currentColor" xmlns="http://www.w3.org/2000/svg">
<path d="M14.105 26.21C20.7369 26.21 26.2121 20.7273 26.2121 14.105C26.2121 7.47312 20.7273 2 14.0954 2C7.47523 2 2 7.47312 2 14.105C2 20.7273 7.48484 26.21 14.105 26.21ZM14.105 23.8255C8.71085 23.8255 4.39412 19.4991 4.39412 14.105C4.39412 8.71085 8.70124 4.38452 14.0954 4.38452C19.4895 4.38452 23.8276 8.71085 23.8276 14.105C23.8276 19.4991 19.4991 23.8255 14.105 23.8255Z" fill="currentColor"/>
<path d="M9.64882 15.215H18.5527C19.2532 15.215 19.7386 14.8023 19.7386 14.1263C19.7386 13.4408 19.2725 13.0184 18.5527 13.0184H9.64882C8.92906 13.0184 8.45117 13.4408 8.45117 14.1263C8.45117 14.8023 8.94828 15.215 9.64882 15.215Z" fill="currentColor"/>
</svg>
