<svg viewBox="0 0 25 25" fill="none" xmlns="http://www.w3.org/2000/svg">
<path d="M12.105 24.21C18.7622 24.21 24.2121 18.7483 24.2121 12.105C24.2121 5.45203 18.7718 0 12.1146 0C11.3986 0 10.999 0.425623 10.999 1.12359V5.44992C10.999 6.04781 11.4138 6.5032 11.9979 6.5032C12.5937 6.5032 13.0064 6.04781 13.0064 5.44992V1.07062L11.9899 2.3592C17.4581 2.30436 21.8159 6.66866 21.8159 12.105C21.8159 17.4907 17.5076 21.8255 12.105 21.8255C6.70452 21.8255 2.37491 17.4907 2.38452 12.105C2.39412 9.77155 3.21397 7.62608 4.58718 5.96459C5.021 5.36413 5.08452 4.7353 4.59022 4.23656C4.10437 3.74414 3.30586 3.79617 2.78368 4.45944C1.06149 6.54327 0 9.22288 0 12.105C0 18.7483 5.45953 24.21 12.105 24.21Z" fill="currentColor"/>
<path d="M13.9884 13.8957C14.9564 12.883 14.7562 11.5084 13.605 10.7244L7.6315 6.60785C6.93588 6.13653 6.2569 6.83145 6.72611 7.51324L10.833 13.4868C11.6266 14.6401 13.0012 14.8499 13.9884 13.8957Z" fill="currentColor"/>
</svg>
