<svg width="30" height="28" viewBox="0 0 30 28" fill="currentColor" xmlns="http://www.w3.org/2000/svg">
<path d="M18.183 19.296V21.5919H24.0023C27.6612 21.5919 29.9102 19.4134 29.9102 16.453C29.9102 13.9804 28.488 11.976 26.1691 11.0502C26.1841 5.75621 22.3633 1.93848 17.4628 1.93848C14.3376 1.93848 12.0063 3.55543 10.5368 5.67371C7.76062 4.98418 4.44797 7.08887 4.33875 10.4008C1.66078 10.8574 0 13.0844 0 15.9027C0 19.0487 2.39062 21.5919 6.2871 21.5919H11.704V19.296H6.28382C3.71108 19.296 2.32123 17.7644 2.32123 15.8626C2.32123 13.6644 3.76451 12.1185 6.16452 12.1185C6.33491 12.1185 6.40194 12.0205 6.39772 11.8576C6.32811 8.36127 8.83358 7.25128 11.3489 7.97549C11.4937 8.02237 11.5884 7.99471 11.6587 7.86159C12.7807 5.82159 14.5247 4.2344 17.448 4.2344C21.1547 4.2344 23.7705 7.16526 23.9571 10.5899C23.9944 11.1953 23.9508 11.8766 23.8955 12.4422C23.8816 12.6051 23.9445 12.7009 24.0977 12.7222C26.2432 13.1404 27.589 14.3898 27.589 16.356C27.589 18.0742 26.3798 19.296 23.9463 19.296H18.183Z" fill="currentColor"/>
<path d="M14.9473 27.4717C15.5419 27.4717 16.027 26.9856 16.027 26.4133V15.594L15.9166 13.5041L16.6617 14.3636L18.3122 16.015C18.5091 16.214 18.773 16.3342 19.0357 16.3342C19.5647 16.3342 20.0072 15.9501 20.0072 15.4021C20.0072 15.1223 19.9008 14.8944 19.6943 14.7072L15.7587 11.0146C15.4725 10.7498 15.228 10.6509 14.9473 10.6509C14.659 10.6509 14.4145 10.7498 14.1262 11.0146L10.1927 14.7072C9.98629 14.8944 9.87988 15.1223 9.87988 15.4021C9.87988 15.9501 10.3031 16.3342 10.8417 16.3342C11.1044 16.3342 11.378 16.214 11.5727 16.015L13.2232 14.3636L13.9704 13.5041L13.86 15.594V26.4133C13.86 26.9856 14.3527 27.4717 14.9473 27.4717Z" fill="currentColor"/>
</svg>
