<svg viewBox="0 0 28 28" fill="currentColor" xmlns="http://www.w3.org/2000/svg">
<path d="M2.58773 19.4704H5.91726C6.01218 19.4704 6.09749 19.4992 6.17531 19.5695L11.3234 24.1773C11.9323 24.7213 12.4017 24.9747 13.0169 24.9747C13.8724 24.9747 14.5289 24.3395 14.5289 23.4744V5.57171C14.5289 4.70664 13.8724 4.01172 12.9977 4.01172C12.3909 4.01172 11.977 4.28008 11.3234 4.86883L6.17531 9.4361C6.09538 9.5043 6.01218 9.53524 5.91726 9.53524H2.58773C0.869528 9.53524 0 10.4366 0 12.2561V16.7612C0 18.5786 0.879137 19.4704 2.58773 19.4704ZM2.78366 17.4072C2.39647 17.4072 2.20991 17.2185 2.20991 16.8313V12.1839C2.20991 11.7892 2.39647 11.6005 2.78366 11.6005H6.44929C6.76663 11.6005 7.00733 11.5356 7.27686 11.2895L11.9695 7.01803C12.0239 6.96154 12.0825 6.9306 12.1624 6.9306C12.2466 6.9306 12.319 6.99131 12.319 7.09888V21.88C12.319 21.9876 12.2466 22.0621 12.1624 22.0621C12.1017 22.0621 12.0335 22.027 11.9695 21.9705L7.27686 17.7182C7.00733 17.4796 6.76663 17.4072 6.44929 17.4072H2.78366Z" fill="currentColor"/>
<path d="M18.5131 19.6804C18.9969 20.0005 19.6489 19.8932 20.0075 19.3792C20.952 18.1218 21.5122 16.3335 21.5122 14.4815C21.5122 12.6295 20.952 10.8508 20.0075 9.57953C19.6489 9.06977 18.9969 8.95071 18.5131 9.28258C17.942 9.65711 17.84 10.3464 18.2877 11.0019C18.9357 11.9226 19.3013 13.1748 19.3013 14.4815C19.3013 15.7881 18.924 17.0287 18.2877 17.961C17.8496 18.6241 17.942 19.2962 18.5131 19.6804Z" fill="currentColor"/>
<path d="M23.1864 22.8128C23.7128 23.1479 24.3615 23.0193 24.7264 22.4875C26.2517 20.3322 27.137 17.4477 27.137 14.4815C27.137 11.5152 26.2613 8.61156 24.7264 6.47336C24.3615 5.94368 23.7128 5.81501 23.1864 6.15016C22.6346 6.49797 22.5559 7.18375 22.9611 7.79077C24.2089 9.61023 24.9282 12.0065 24.9282 14.4815C24.9282 16.9565 24.1897 19.3314 22.9611 21.1701C22.5655 21.7771 22.6346 22.465 23.1864 22.8128Z" fill="currentColor"/>
</svg>
