<svg width="28" height="28" viewBox="0 0 28 28" fill="currentColor" xmlns="http://www.w3.org/2000/svg">
<path d="M7.94572 18.8783H11.2699C11.369 18.8783 11.4522 18.9113 11.5279 18.9774L16.678 23.5853C17.2965 24.1292 17.7564 24.3826 18.3716 24.3826C18.9193 24.3826 19.3724 24.1147 19.6525 23.6551L17.7489 21.7611L12.5697 17.0856C12.329 16.8683 12.1694 16.8151 11.8499 16.8151H8.14376C7.74486 16.8151 7.55829 16.6264 7.55829 16.2392V11.5609L5.86096 9.86566C5.53448 10.2765 5.34839 10.8756 5.34839 11.664V16.1692C5.34839 17.9865 6.22752 18.8783 7.94572 18.8783ZM19.8751 16.7612L19.8772 4.97964C19.8772 4.11456 19.2367 3.41964 18.3524 3.41964C17.7456 3.41964 17.335 3.688 16.6717 4.27675L11.7637 8.6359L13.2475 10.1251L17.3179 6.42595C17.3744 6.36946 17.4426 6.33853 17.5108 6.33853C17.597 6.33853 17.6673 6.39923 17.6673 6.50681V14.5492L19.8751 16.7612Z" fill="currentColor"/>
<path d="M23.7703 25.5182C24.1345 25.8803 24.7394 25.8824 25.0898 25.5182C25.4519 25.1464 25.454 24.5628 25.0898 24.2007L4.60336 3.71426C4.23914 3.35004 3.63422 3.35004 3.27 3.71426C2.91 4.06676 2.91 4.68129 3.27 5.03379L23.7703 25.5182Z" fill="currentColor"/>
</svg>
