<svg width="33" height="28" viewBox="0 0 33 28" fill="currentColor" xmlns="http://www.w3.org/2000/svg">
<path d="M2.58773 18.6598H5.91726C6.01218 18.6598 6.09749 18.6886 6.17531 18.7589L11.3234 23.3667C11.9323 23.9107 12.4017 24.1641 13.0169 24.1641C13.8724 24.1641 14.5289 23.5289 14.5289 22.6639V4.76112C14.5289 3.89605 13.8724 3.20113 12.9977 3.20113C12.3909 3.20113 11.977 3.46949 11.3234 4.05824L6.17531 8.62551C6.09538 8.69371 6.01218 8.72465 5.91726 8.72465H2.58773C0.869528 8.72465 0 9.62605 0 11.4455V15.9507C0 17.768 0.879137 18.6598 2.58773 18.6598ZM2.78366 16.5966C2.39647 16.5966 2.20991 16.4079 2.20991 16.0207V11.3733C2.20991 10.9786 2.39647 10.7899 2.78366 10.7899H6.44929C6.76663 10.7899 7.00733 10.725 7.27686 10.4789L11.9695 6.20744C12.0239 6.15095 12.0825 6.12001 12.1624 6.12001C12.2466 6.12001 12.319 6.18072 12.319 6.28829V21.0694C12.319 21.177 12.2466 21.2515 12.1624 21.2515C12.1017 21.2515 12.0335 21.2164 11.9695 21.1599L7.27686 16.9076C7.00733 16.669 6.76663 16.5966 6.44929 16.5966H2.78366Z" fill="currentColor"/>
<path d="M18.513 18.8698C18.9968 19.1899 19.6488 19.0826 20.0074 18.5686C20.9519 17.3112 21.5121 15.5229 21.5121 13.6709C21.5121 11.8189 20.9519 10.0402 20.0074 8.76894C19.6488 8.25918 18.9968 8.14012 18.513 8.47199C17.9419 8.84652 17.8399 9.53581 18.2876 10.1914C18.9356 11.112 19.3012 12.3642 19.3012 13.6709C19.3012 14.9775 18.9239 16.2181 18.2876 17.1504C17.8495 17.8135 17.9419 18.4856 18.513 18.8698Z" fill="currentColor"/>
<path d="M23.1843 22.0022C23.7107 22.3374 24.3595 22.2087 24.7223 21.6769C26.2497 19.5216 27.1329 16.6371 27.1329 13.6709C27.1329 10.7046 26.2593 7.80097 24.7223 5.66277C24.3595 5.13309 23.7107 5.00442 23.1843 5.33957C22.6305 5.68738 22.5518 6.37316 22.9591 6.98018C24.2069 8.79964 24.9262 11.1959 24.9262 13.6709C24.9262 16.1459 24.1877 18.5208 22.9591 20.3595C22.5635 20.9665 22.6305 21.6544 23.1843 22.0022Z" fill="currentColor"/>
<path d="M27.8953 25.1731C28.4013 25.5124 29.0852 25.3636 29.448 24.8063C31.5157 21.7233 32.7503 17.8835 32.7503 13.6772C32.7503 9.46339 31.4868 5.64074 29.448 2.55028C29.0852 1.98122 28.4013 1.84411 27.8953 2.18348C27.3424 2.53879 27.2648 3.21824 27.6466 3.82105C29.4419 6.54893 30.5587 9.93448 30.5587 13.6772C30.5587 17.4103 29.4419 20.8172 27.6466 23.5355C27.2648 24.1383 27.3424 24.8156 27.8953 25.1731Z" fill="currentColor"/>
</svg>
