<svg width="28" height="28" viewBox="0 0 28 28" fill="currentColor" xmlns="http://www.w3.org/2000/svg">
<path d="M5.58773 19.4704H8.91726C9.01218 19.4704 9.09749 19.4992 9.17531 19.5695L14.3234 24.1773C14.9227 24.7213 15.4017 24.9747 16.0073 24.9747C16.8724 24.9747 17.5172 24.3395 17.5172 23.4744V5.57171C17.5172 4.70664 16.8724 4.01172 15.9881 4.01172C15.3909 4.01172 14.977 4.28008 14.3234 4.86883L9.17531 9.4361C9.09538 9.5043 9.01218 9.53524 8.91726 9.53524H5.58773C3.86953 9.53524 3 10.4366 3 12.2561V16.7612C3 18.5786 3.87914 19.4704 5.58773 19.4704ZM5.78366 17.4072C5.39647 17.4072 5.20991 17.2185 5.20991 16.8313V12.1839C5.20991 11.7892 5.39647 11.6005 5.78366 11.6005H9.44929C9.76663 11.6005 10.0073 11.5356 10.2769 11.2895L14.9695 7.01803C15.0239 6.96154 15.0825 6.9306 15.1624 6.9306C15.2466 6.9306 15.319 6.99131 15.319 7.09888V21.88C15.319 21.9876 15.2466 22.0621 15.1624 22.0621C15.1017 22.0621 15.0335 22.027 14.9695 21.9705L10.2769 17.7182C10.0073 17.4796 9.76663 17.4072 9.44929 17.4072H5.78366Z" fill="currentColor"/>
<path d="M21.5033 19.69C21.9871 20.0122 22.6391 19.9028 22.9977 19.3888C23.9401 18.1314 24.5024 16.3431 24.5024 14.4911C24.5024 12.6391 23.9401 10.8604 22.9977 9.58914C22.6391 9.07938 21.9871 8.96032 21.5033 9.29219C20.9322 9.66672 20.8302 10.356 21.2757 11.0116C21.9238 11.9322 22.2915 13.1845 22.2915 14.4911C22.2915 15.7977 21.9142 17.0383 21.2757 17.9706C20.8398 18.6358 20.9322 19.3058 21.5033 19.69Z" fill="currentColor"/>
</svg>
