<svg width="30" height="30" viewBox="0 0 30 30" fill="none" xmlns="http://www.w3.org/2000/svg">
<path d="M15 28.6441C22.5354 28.6441 28.6441 22.5354 28.6441 15C28.6441 7.46458 22.5354 1.35593 15 1.35593C7.46461 1.35593 1.35596 7.46458 1.35596 15C1.35596 22.5354 7.46461 28.6441 15 28.6441Z" stroke="white"/>
<path d="M15.1214 15.9451C16.6402 15.9451 18.1335 15.8547 19.3616 15.6726C20.3505 15.5235 20.6627 14.7897 20.3286 13.7529L18.5084 8.01774C18.1736 6.95635 17.3193 6.45764 16.1415 6.45764H14.0957C12.918 6.45764 12.0637 6.95635 11.7289 8.01774L9.90872 13.7529C9.57455 14.7897 9.88675 15.5235 10.8757 15.6726C12.1038 15.8547 13.597 15.9451 15.1214 15.9451ZM15.1214 14.7808C13.8552 14.7808 12.6276 14.711 11.3353 14.5649C11.0043 14.53 10.9631 14.3301 11.0674 13.9854L12.7928 8.47006C12.9707 7.8934 13.4425 7.61509 14.0957 7.61509H16.1415C16.7947 7.61509 17.2666 7.8934 17.4501 8.47006L19.1699 13.9854C19.2742 14.3301 19.233 14.53 18.902 14.5649C17.6096 14.711 16.3821 14.7808 15.1214 14.7808ZM14.4866 15.4319V23.056H15.7519V15.4319H14.4866ZM12.009 23.538H18.2283C18.5242 23.538 18.7266 23.3251 18.7266 23.0154C18.7266 22.4421 18.2592 22.0439 17.5567 22.0439H12.6806C11.9781 22.0439 11.5175 22.4421 11.5175 23.0154C11.5175 23.3251 11.7131 23.538 12.009 23.538Z" fill="white"/>
</svg>
