<svg width="18" height="28" viewBox="0 0 18 28" fill="none" xmlns="http://www.w3.org/2000/svg">
<path d="M8.75681 15.5528C11.2466 15.5528 13.6945 15.4046 15.7077 15.1061C17.3289 14.8617 17.8407 13.6588 17.2929 11.9592L14.3091 2.55748C13.7602 0.817535 12.3597 0 10.429 0H7.07537C5.14471 0 3.74427 0.817535 3.19533 2.55748L0.211561 11.9592C-0.33625 13.6588 0.175541 14.8617 1.79669 15.1061C3.80993 15.4046 6.25783 15.5528 8.75681 15.5528ZM8.75681 13.6442C6.68101 13.6442 4.66866 13.5297 2.55012 13.2903C2.00748 13.233 1.93999 12.9054 2.11095 12.3403L4.93951 3.29897C5.23106 2.35365 6.00452 1.8974 7.07537 1.8974H10.429C11.4999 1.8974 12.2733 2.35365 12.5741 3.29897L15.3935 12.3403C15.5644 12.9054 15.497 13.233 14.9544 13.2903C12.8357 13.5297 10.8234 13.6442 8.75681 13.6442ZM7.71611 14.7115V27.2097H9.79031V14.7115H7.71611ZM3.65449 28H13.8499C14.3349 28 14.6668 27.6509 14.6668 27.1433C14.6668 26.2034 13.9005 25.5506 12.7489 25.5506H4.75548C3.60388 25.5506 2.84886 26.2034 2.84886 27.1433C2.84886 27.6509 3.16946 28 3.65449 28Z" fill="white"/>
</svg>
