<svg width="118" height="118" viewBox="0 0 118 118" fill="none" xmlns="http://www.w3.org/2000/svg">
<circle cx="59" cy="59" r="57.5" stroke="#FF2171" stroke-width="3"/>
<path d="M59.5118 62.9828C65.9124 62.9828 72.2055 62.6018 77.3811 61.8344C81.5487 61.2062 82.8644 58.1137 81.4561 53.7443L73.7855 29.5747C72.3743 25.1017 68.7741 23 63.8107 23H55.1892C50.2259 23 46.6257 25.1017 45.2145 29.5747L37.5439 53.7443C36.1356 58.1137 37.4513 61.2062 41.6189 61.8344C46.7945 62.6018 53.0875 62.9828 59.5118 62.9828ZM59.5118 58.0762C54.1754 58.0762 49.0021 57.7818 43.5558 57.1664C42.1608 57.0191 41.9873 56.1769 42.4268 54.7242L49.6984 31.4809C50.4479 29.0507 52.4363 27.8778 55.1892 27.8778H63.8107C66.5636 27.8778 68.552 29.0507 69.3253 31.4809L76.5732 54.7242C77.0127 56.1769 76.8392 57.0191 75.4443 57.1664C69.9977 57.7818 64.8246 58.0762 59.5118 58.0762ZM56.8364 60.82V92.9501H62.1687V60.82H56.8364ZM46.3949 94.9817H72.605C73.8519 94.9817 74.705 94.0842 74.705 92.7793C74.705 90.363 72.7351 88.6848 69.7747 88.6848H49.2253C46.2648 88.6848 44.3238 90.363 44.3238 92.7793C44.3238 94.0842 45.148 94.9817 46.3949 94.9817Z" fill="#FF2171"/>
</svg>
